<?xml version="1.0" encoding="UTF-8" standalone="no"?>
<svg width="190px" height="33px" viewBox="0 0 190 33" version="1.1" xmlns="http://www.w3.org/2000/svg" xmlns:xlink="http://www.w3.org/1999/xlink">
    <!-- Generator: Sketch 40.1 (33804) - http://www.bohemiancoding.com/sketch -->
    <title>logo-global</title>
    <desc>Created with Sketch.</desc>
    <defs></defs>
    <g id="Page-1" stroke="none" stroke-width="1" fill="none" fill-rule="evenodd">
        <g id="logo-global" fill="#FFFFFF">
            <g id="Layer_1">
                <circle id="Oval" transform="translate(13.112596, 11.942931) rotate(-88.340000) translate(-13.112596, -11.942931) " cx="13.1125963" cy="11.9429313" r="3.69027356"></circle>
                <path d="M6.1100304,14.0449848 C6.78571429,14.0449848 8.92537994,14.3712766 10.337386,15.4569909 C11.4215768,16.276348 12.3530659,17.2801667 13.0892097,18.4224924 C13.2313795,18.6230723 13.3297613,18.851318 13.3779635,19.0924012 C13.4160622,18.8671237 13.4953497,18.6507959 13.6118541,18.4542553 C14.2049072,17.5902294 14.8756804,16.7822087 15.6158055,16.0402736 C16.6697568,15.1335866 17.8478723,14.2471125 20.71231,13.9930091 L20.6834347,17.8767477 C19.7294949,17.9827637 18.8297694,18.374255 18.1019757,19 C17.0269863,19.9605387 16.2057326,21.1715902 15.7110942,22.5256839 C15.4479233,23.4148287 15.3080164,24.3358831 15.2952888,25.2630699 L15.2462006,32.8024316 L11.6050152,32.8197568 L11.6050152,25.2948328 C11.6050152,24.587386 11.4519757,23.1407295 11.0737082,22.4217325 C10.6954407,21.7027356 9.85516717,19.724772 8.37097264,18.7776596 C7.91762918,18.4889058 7.21595745,17.8854103 6.12446809,17.8825228 L6.1100304,14.0449848 Z" id="Shape"></path>
                <path d="M13.3462006,4.5449848 C13.4696296,4.70287606 13.6144331,4.84282035 13.7764438,4.96079027 C15.8209672,6.30734354 17.72564,7.85507158 19.4620061,9.58085106 C20.3282675,10.4471125 22.6382979,13.2220365 22.6382979,16.6610942 C22.6218957,18.6594791 21.9412903,20.5956492 20.7036474,22.1647416 C20.0510638,22.8924012 17.6890578,24.7866261 16.3117021,24.9541033 L16.3059271,28.9648936 C18.0153495,28.6299392 20.8971125,27.5211246 22.531459,25.8665653 C24.1658055,24.2120061 25.5229483,22.2282675 26.1351064,19.724772 C26.8367781,16.837234 26.3227964,13.562766 25.4334347,11.668541 C24.2408815,9.1275076 22.2022796,6.72796353 19.6381459,4.67492401 L13.337538,0.00288753799 L7.05714286,4.70957447 C4.50167173,6.77416413 2.47462006,9.18525836 1.28206687,11.7291793 C0.415805471,13.6291793 -0.0981762918,16.91231 0.617933131,19.7882979 C1.2387538,22.2889058 2.60744681,24.2697568 4.25045593,25.912766 C5.89346505,27.5557751 8.78966565,28.650152 10.4904255,28.9648936 L10.4528875,24.9714286 C9.07553191,24.8097264 6.69908815,22.9270517 6.0493921,22.2022796 C4.80584817,20.6413518 4.11617604,18.7114887 4.0887538,16.7159574 C4.0887538,13.2768997 6.39878419,10.4846505 7.24483283,9.61838906 C8.97297776,7.88052914 10.8709078,6.32020236 12.9101824,4.96079027 C13.0741378,4.84312328 13.2208895,4.70317463 13.3462006,4.5449848 L13.3462006,4.5449848 Z" id="Shape"></path>
                <path d="M36.5013678,20.7382979 C36.4031915,19.6583587 35.7361702,19.037538 34.6908815,19.037538 C33.5156535,19.037538 32.8082067,20.0597264 32.8082067,22.0636778 C32.8082067,23.5074468 33.1200608,24.88769 34.8294833,24.88769 C35.9036474,24.88769 36.4147416,24.1224924 36.5417933,23.1291793 L39.7411854,23.1291793 C39.4524316,25.8117021 37.5610942,27.4287234 34.8727964,27.4287234 C31.5059271,27.4287234 29.4673252,25.3208207 29.4673252,21.9424012 C29.4673252,18.5639818 31.7022796,16.4907295 34.5465046,16.4907295 C37.6592705,16.4907295 39.4004559,18.0644377 39.668997,20.7325228 L36.4927052,20.7325228 L36.5013678,20.7382979 Z" id="Shape"></path>
                <polygon id="Shape" points="40.9279635 27.1601824 40.9279635 16.7650456 43.8703647 16.7650456 43.8703647 27.1601824"></polygon>
                <path d="M48.0024316,22.5227964 C48.0024316,21.7200608 48.4990881,21.2205167 49.3826748,21.2205167 C50.0946295,21.2400251 50.6680711,21.8109349 50.6907295,22.5227964 L48.0024316,22.5227964 L48.0024316,22.5227964 Z M53.6331307,24.0531915 C53.6764438,21.318693 52.0218845,19.381155 49.2700608,19.381155 C46.8878419,19.381155 45.0629179,20.9721884 45.0629179,23.4468085 C45.0629179,25.993617 46.9022796,27.3767477 49.2844985,27.3767477 C51.0170213,27.3767477 52.8852584,26.7588146 53.393465,24.88769 L50.5781155,24.88769 C50.3687168,25.3040735 49.9349825,25.5593441 49.4693009,25.5402736 C49.0752898,25.5467346 48.6957592,25.3918629 48.4187544,25.1115865 C48.1417496,24.83131 47.9913448,24.4499872 48.0024316,24.056079 L53.6331307,24.056079 L53.6331307,24.0531915 Z" id="Shape"></path>
                <polygon id="Shape" points="54.0922492 19.5977204 57.0317629 19.5977204 58.331155 24.3737082 59.618997 19.5977204 62.4458967 19.5977204 59.9424012 27.1601824 56.6534954 27.1601824"></polygon>
                <path d="M65.8300912,22.5227964 C65.8300912,21.7200608 66.3267477,21.2205167 67.2103343,21.2205167 C67.9222891,21.2400251 68.4957307,21.8109349 68.5183891,22.5227964 L65.8300912,22.5227964 L65.8300912,22.5227964 Z M71.4607903,24.0531915 C71.5041033,21.318693 69.8495441,19.381155 67.0977204,19.381155 C64.7155015,19.381155 62.8905775,20.9721884 62.8905775,23.4468085 C62.8905775,25.993617 64.7299392,27.3767477 67.1121581,27.3767477 C68.8446809,27.3767477 70.7129179,26.7588146 71.2211246,24.88769 L68.4057751,24.88769 C68.1963763,25.3040735 67.7626421,25.5593441 67.2969605,25.5402736 C66.9034465,25.5459388 66.5246742,25.3907164 66.2483035,25.1105299 C65.9719327,24.8303433 65.8219184,24.4494783 65.8329787,24.056079 L71.4636778,24.056079 L71.4607903,24.0531915 Z" id="Shape"></path>
                <polygon id="Shape" points="72.6475684 27.1601824 72.6475684 16.7650456 75.5899696 16.7650456 75.5899696 27.1601824"></polygon>
                <path d="M80.674924,25.6817629 C80.0974164,25.6817629 79.7393617,25.418997 79.7393617,25.0407295 C79.7393617,24.0531915 81.0156535,24.2841945 81.9800912,23.8077508 C82.0493921,24.850152 81.7086626,25.6817629 80.674924,25.6817629 L80.674924,25.6817629 Z M85.3180851,27.1630699 L85.3180851,27.018693 C84.9369301,26.7010638 84.9224924,26.4844985 84.9224924,26.0513678 L84.9224924,22.5141337 C84.9224924,20.71231 84.7117021,19.3840426 81.2004559,19.3840426 C78.2667173,19.3840426 77.1579027,20.3224924 77.1579027,21.925076 L79.9905775,21.925076 C80.062766,21.2724924 80.6142857,21.1858663 81.0243161,21.1858663 C81.3361702,21.1858663 81.9887538,21.2580547 81.9887538,21.8066869 C81.9887538,23.218693 76.7016717,21.66231 76.7016717,25.0984802 C76.7016717,26.6721884 77.9490881,27.3767477 79.3524316,27.3767477 C80.4583587,27.3767477 81.3072948,27.1457447 82.1446809,26.3545593 L82.2861702,27.1601824 L85.3267477,27.1601824 L85.3180851,27.1630699 Z" id="Shape"></path>
                <path d="M86.3431611,19.5977204 L89.031459,19.5977204 L89.031459,20.7787234 C89.6927052,19.8691489 90.4117021,19.381155 91.5234043,19.381155 C93.4753799,19.381155 94.393617,20.5361702 94.393617,22.6267477 L94.393617,27.1601824 L91.4512158,27.1601824 L91.4512158,23.1609422 C91.4512158,22.4101824 91.2548632,21.7460486 90.4232523,21.7460486 C89.5223404,21.7460486 89.2855623,22.3379939 89.2855623,23.3053191 L89.2855623,27.1601824 L86.3431611,27.1601824 L86.3431611,19.5977204 L86.3431611,19.5977204 Z" id="Shape"></path>
                <path d="M99.5363222,25.2110942 C98.5776596,25.2110942 98.381307,24.2899696 98.381307,23.4958967 C98.381307,22.7018237 98.649848,21.7085106 99.6229483,21.7085106 C100.596049,21.7085106 100.879027,22.6180851 100.879027,23.4410334 C100.879027,24.2639818 100.552736,25.2110942 99.5363222,25.2110942 L99.5363222,25.2110942 Z M103.720365,27.1601824 L103.720365,16.7650456 L100.777964,16.7650456 L100.777964,20.3658055 C100.157143,19.6150456 99.5074468,19.3840426 98.574772,19.3840426 C96.8075988,19.3840426 95.4360182,21.0155015 95.4360182,23.524772 C95.4360182,25.6586626 96.5679331,27.3767477 98.8,27.3767477 C99.7471125,27.3767477 100.382371,27.0879939 101.072492,26.1495441 L101.072492,27.1601824 L103.717477,27.1601824 L103.720365,27.1601824 Z" id="Shape"></path>
                <polygon id="Shape" points="107.800456 27.1601824 107.800456 16.7650456 111.843009 16.7650456 113.641945 23.2475684 115.440881 16.7650456 119.483435 16.7650456 119.483435 27.1601824 116.46307 27.1601824 116.46307 23.9838906 116.506383 22.3668693 116.676748 20.4899696 116.647872 20.4899696 114.791185 27.1601824 112.481155 27.1601824 110.624468 20.4899696 110.595593 20.4899696 110.737082 22.0203647 110.809271 23.637386 110.809271 27.1601824"></polygon>
                <path d="M123.173708,22.5227964 C123.173708,21.7200608 123.670365,21.2205167 124.553951,21.2205167 C125.265906,21.2400251 125.839348,21.8109349 125.862006,22.5227964 L123.173708,22.5227964 L123.173708,22.5227964 Z M128.804407,24.0531915 C128.84772,21.318693 127.193161,19.381155 124.43845,19.381155 C122.056231,19.381155 120.231307,20.9721884 120.231307,23.4468085 C120.231307,25.993617 122.070669,27.3767477 124.452888,27.3767477 C126.18541,27.3767477 128.053647,26.7588146 128.561854,24.88769 L125.746505,24.88769 C125.537106,25.3040735 125.103372,25.5593441 124.63769,25.5402736 C124.243679,25.5467346 123.864148,25.3918629 123.587143,25.1115865 C123.310139,24.83131 123.159734,24.4499872 123.170821,24.056079 L128.80152,24.056079 L128.804407,24.0531915 Z" id="Shape"></path>
                <path d="M134.30228,27.1601824 C130.441641,27.3767477 129.970973,27.1024316 129.970973,24.4920973 L129.970973,21.3158055 L128.922796,21.3158055 L128.922796,19.5832827 L130.011398,19.5832827 L130.011398,17.2299392 L132.898936,17.2299392 L132.898936,19.5832827 L134.31383,19.5832827 L134.31383,21.3158055 L132.922036,21.3158055 L132.922036,24.0589666 C132.922036,24.7519757 133.020213,24.9974164 133.843161,24.9974164 L134.310942,24.9974164 L134.310942,27.1457447 L134.30228,27.1601824 Z" id="Shape"></path>
                <path d="M135.232067,19.5977204 L137.905927,19.5977204 L137.905927,21.1281155 L137.934802,21.1281155 C138.344833,19.9442249 139.066717,19.3955927 140.21307,19.3955927 C140.340122,19.3955927 140.467173,19.4244681 140.594225,19.4331307 L140.594225,22.4448328 C140.393417,22.4017095 140.189824,22.3727627 139.984954,22.3582067 C138.783739,22.3582067 138.174468,22.9357143 138.174468,24.5642857 L138.174468,27.1630699 L135.232067,27.1630699 L135.232067,19.5977204 L135.232067,19.5977204 Z" id="Shape"></path>
                <path d="M145.012158,21.4024316 C145.780243,21.3591185 146.26535,22.1965046 146.26535,23.3053191 C146.26535,24.7346505 145.780243,25.3525836 144.983283,25.3525836 C144.186322,25.3525836 143.701216,24.7317629 143.701216,23.3053191 C143.701216,22.456383 144.00152,21.4024316 145.012158,21.4024316 L145.012158,21.4024316 Z M140.758815,23.4785714 C140.758815,26.0600304 142.598176,27.3882979 144.980395,27.3882979 C147.362614,27.3882979 149.204863,26.0889058 149.204863,23.3197568 C149.204863,20.9693009 147.593617,19.3955927 144.968845,19.3955927 C142.450912,19.381155 140.758815,20.8393617 140.758815,23.4785714 L140.758815,23.4785714 Z" id="Shape"></path>
                <path d="M153.920213,25.0840426 C153.157903,25.0840426 152.718997,24.3621581 152.718997,23.3053191 C152.718997,22.2946809 153.198328,21.5987842 153.905775,21.5987842 C154.682523,21.5987842 155.193617,22.1762918 155.193617,23.3630699 C155.193617,24.4054711 154.69696,25.0840426 153.920213,25.0840426 L153.920213,25.0840426 Z M149.834347,19.5977204 L149.834347,29.7214286 L152.776748,29.7214286 L152.776748,26.41231 C153.208941,27.0282644 153.918626,27.3895978 154.670973,27.3767477 C156.325532,27.3767477 158.136018,26.2968085 158.136018,23.3341945 C158.136018,21.2551672 157.061854,19.3955927 154.8269,19.3955927 C153.977964,19.3955927 152.918237,19.8142857 152.516869,20.7354103 L152.487994,20.7354103 L152.487994,19.6121581 L149.843009,19.6121581 L149.834347,19.5977204 Z" id="Shape"></path>
                <path d="M162.455775,25.6817629 C161.878267,25.6817629 161.520213,25.418997 161.520213,25.0407295 C161.520213,24.0531915 162.796505,24.2841945 163.758055,23.8077508 C163.818693,24.850152 163.489514,25.6817629 162.455775,25.6817629 L162.455775,25.6817629 Z M167.098936,27.1630699 L167.098936,27.018693 C166.717781,26.7010638 166.703343,26.4844985 166.703343,26.0513678 L166.703343,22.5141337 C166.703343,20.71231 166.492553,19.3840426 162.981307,19.3840426 C160.047568,19.3840426 158.938754,20.3224924 158.938754,21.925076 L161.771429,21.925076 C161.843617,21.2724924 162.395137,21.1858663 162.805167,21.1858663 C163.117021,21.1858663 163.769605,21.2580547 163.769605,21.8066869 C163.769605,23.218693 158.482523,21.66231 158.482523,25.0984802 C158.482523,26.6721884 159.729939,27.3767477 161.133283,27.3767477 C162.23921,27.3767477 163.088146,27.1457447 163.925532,26.3545593 L164.067021,27.1601824 L167.107599,27.1601824 L167.098936,27.1630699 Z" id="Shape"></path>
                <path d="M167.79772,19.5977204 L170.46003,19.5977204 L170.46003,21.1281155 L170.488906,21.1281155 C170.898936,19.9442249 171.620821,19.3955927 172.767173,19.3955927 C172.894225,19.3955927 173.021277,19.4244681 173.148328,19.4331307 L173.148328,22.4448328 C172.94752,22.4017095 172.743928,22.3727627 172.539058,22.3582067 C171.334954,22.3582067 170.728571,22.9357143 170.728571,24.5642857 L170.728571,27.1630699 L167.79772,27.1630699 L167.79772,19.5977204 L167.79772,19.5977204 Z" id="Shape"></path>
                <polygon id="Shape" points="176.52386 25.0378419 176.52386 27.1601824 173.587234 27.1601824 173.587234 16.7650456 176.52386 16.7650456 176.52386 21.9077508 178.406535 19.5977204 181.845593 19.5977204 179.099544 22.5285714 182.197872 27.1486322 178.666413 27.1486322 177.081155 24.4661094"></polygon>
                <path d="M185.024772,24.8155015 C185.012335,25.0813666 185.128349,25.3370267 185.336626,25.5027356 C185.544827,25.6603958 185.800313,25.7428435 186.061398,25.7366261 C186.511854,25.7366261 186.991185,25.5922492 186.991185,25.0522796 C186.991185,23.8337386 182.460638,24.8039514 182.460638,21.8759878 C182.460638,19.9442249 184.424164,19.381155 185.966109,19.381155 C187.580243,19.381155 189.474468,19.756535 189.641945,21.7633739 L186.970973,21.7633739 C186.95188,21.5484538 186.847972,21.349989 186.682219,21.2118541 C186.510027,21.0811692 186.297575,21.0147778 186.081611,21.0241641 C185.573404,21.0241641 185.25,21.1829787 185.25,21.5554711 C185.25,22.606535 189.924924,21.9019757 189.924924,24.7317629 C189.924924,26.3025836 188.65152,27.3680851 185.937234,27.3680851 C184.239362,27.3680851 182.3769,26.8367781 182.220973,24.8068389 L185.018997,24.8068389 L185.024772,24.8155015 Z" id="Shape"></path>
            </g>
        </g>
    </g>
</svg>